<svg xmlns="http://www.w3.org/2000/svg" viewBox="0 0 153 153">
  <g fill="none" stroke="#40b8fa" stroke-width="11.8" stroke-linecap="round" stroke-linejoin="round" opacity=".58">
    <path d="M67 9c-34 4-60 37-60 75 0 40 28 63 68 64 44 1 73-24 73-67 0-30-13-58-35-73"/>
    <path d="M62 12c20-3 41 1 55 13 17 14 25 36 24 60"/>
    <path d="M51 123c0-28 0-58 4-88 2-15 7-23 13-23 7 0 6 16 5 34-2 25-3 54-1 82"/>
    <path d="M62 76c13 10 28 24 43 41"/>
    <path d="M96 36c12 23 13 58 5 91"/>
    <path d="M83 63c14 19 28 33 45 45"/>
  </g>
</svg>
