<svg xmlns="http://www.w3.org/2000/svg" viewBox="0 0 32 32">
  <g fill="#40b8fa">
    <path fill-rule="evenodd" d="M5 3h22c2.3 0 4 1.8 4 4.1v17.8c0 2.3-1.7 4.1-4 4.1H5c-2.3 0-4-1.8-4-4.1V7.1C1 4.8 2.7 3 5 3Zm-.6 4.4v2.9h23.2V7.4c0-.7-.4-1.1-1.1-1.1h-21c-.7 0-1.1.4-1.1 1.1Zm0 5.6v10.8c0 .9.5 1.5 1.5 1.5h20.2c1 0 1.5-.6 1.5-1.5V13H4.4Z"/>
    <rect x="6.8" y="7.1" width="5.1" height="2.2" rx="1.1"/>
    <rect x="12.7" y="7.1" width="5.1" height="2.2" rx="1.1"/>
    <rect x="18.6" y="7.1" width="5.1" height="2.2" rx="1.1"/>
    <path fill="none" stroke="#40b8fa" stroke-width="3.4" stroke-linecap="round" stroke-linejoin="round" d="m12 18.2-3.4 3 3.4 3m8-6 3.4 3-3.4 3m-2.6-6.8-2.8 7.6"/>
  </g>
</svg>
