<svg xmlns="http://www.w3.org/2000/svg" viewBox="0 0 1600 460" role="img" aria-labelledby="title desc">
  <title id="title">EasyMDE</title>
  <desc id="desc">EasyMDE Markdown Editor for WordPress logo</desc>
  <defs>
    <linearGradient id="brand" x1="0" y1="0" x2="1" y2="1">
      <stop offset="0%" stop-color="#2496ff"/>
      <stop offset="100%" stop-color="#6738f4"/>
    </linearGradient>
    <linearGradient id="wordmark" x1="0" y1="0" x2="1" y2="0">
      <stop offset="0%" stop-color="#1677f2"/>
      <stop offset="100%" stop-color="#6a35f4"/>
    </linearGradient>
    <linearGradient id="preview" x1="0" y1="0" x2="1" y2="1">
      <stop offset="0%" stop-color="#172844"/>
      <stop offset="100%" stop-color="#111b31"/>
    </linearGradient>
    <filter id="shadow" x="-30%" y="-30%" width="160%" height="160%">
      <feDropShadow dx="0" dy="16" stdDeviation="14" flood-color="#172554" flood-opacity="0.18"/>
    </filter>
  </defs>

  <g filter="url(#shadow)">
    <rect x="72" y="42" width="376" height="376" rx="88" fill="url(#brand)"/>
    <path d="M72 157H37c-15 0-27-12-27-27s12-27 27-27h35v54Zm0 84H51c-15 0-27-12-27-27s12-27 27-27h21v54Zm0 84H37c-15 0-27-12-27-27s12-27 27-27h35v54Z" fill="#2496ff" opacity="0.96"/>
    <circle cx="39" cy="298" r="14" fill="#2496ff"/>

    <rect x="110" y="88" width="166" height="284" rx="28" fill="#ffffff"/>
    <path d="M140 157v-39c0-7 5-12 12-12h14l27 35 27-35h14c7 0 12 5 12 12v39h-25v-23l-28 37-28-37v23h-25Z" fill="#15253f"/>
    <rect x="140" y="202" width="99" height="13" rx="6.5" fill="#cbd5e1"/>
    <rect x="140" y="230" width="77" height="13" rx="6.5" fill="#d6deec"/>
    <rect x="140" y="258" width="92" height="13" rx="6.5" fill="#d6deec"/>
    <rect x="140" y="302" width="41" height="12" rx="6" fill="#95bdfd"/>
    <rect x="191" y="302" width="49" height="12" rx="6" fill="#d6deec"/>

    <path d="M276 88h96c20 0 36 16 36 36v212c0 20-16 36-36 36h-96V88Z" fill="url(#preview)"/>
    <rect x="301" y="136" width="44" height="8" rx="4" fill="#7dd3fc"/>
    <rect x="351" y="136" width="28" height="8" rx="4" fill="#8b5cf6"/>
    <rect x="301" y="163" width="74" height="8" rx="4" fill="#a78bfa"/>
    <rect x="301" y="190" width="37" height="8" rx="4" fill="#86efac"/>
    <rect x="345" y="190" width="30" height="8" rx="4" fill="#fde68a"/>
    <rect x="301" y="217" width="67" height="8" rx="4" fill="#cbd5e1"/>
    <rect x="301" y="268" width="55" height="8" rx="4" fill="#637794"/>
    <rect x="301" y="292" width="70" height="8" rx="4" fill="#637794"/>

    <g transform="translate(286 330) rotate(-39)">
      <rect x="0" y="0" width="118" height="30" rx="11" fill="#5a3bea"/>
      <rect x="13" y="0" width="30" height="30" fill="#2f81f7"/>
      <rect x="43" y="0" width="31" height="30" fill="#4567ef"/>
      <path d="M118 0h17c7 0 12 5 12 12v6c0 7-5 12-12 12h-17V0Z" fill="#f8fafc"/>
      <path d="M-18 15 0 0v30L-18 15Z" fill="#13233d"/>
    </g>
  </g>

  <g font-family="Inter, ui-sans-serif, system-ui, -apple-system, BlinkMacSystemFont, 'Segoe UI', sans-serif">
    <text x="520" y="218" font-size="154" font-weight="760" letter-spacing="-7" fill="#14233c">Easy</text>
    <text x="883" y="218" font-size="154" font-weight="760" letter-spacing="-7" fill="url(#wordmark)">MDE</text>
    <text x="526" y="292" font-size="39" font-weight="480" letter-spacing="0.2" fill="#64748b">Markdown Editor for WordPress</text>
  </g>
</svg>
